<svg width="200" height="200" viewBox="0 0 100 100" version="1.1" xmlns="http://www.w3.org/2000/svg" xmlns:xlink="http://www.w3.org/1999/xlink">
<path id="move" fill-rule="evenodd" d="M 50 3.88098C 75.485 3.88098 96.119 24.515 96.119 50C 96.119 75.4847 75.4849 96.119 50 96.119C 24.5151 96.119 3.88098 75.4847 3.88098 50C 3.88098 24.515 24.5151 3.88098 50 3.88098ZM 0 50C 0 22.3997 22.3998 0 50 0C 77.6002 0 100 22.3997 100 50C 100 77.6001 77.6002 100 50 100C 22.3998 100 0 77.6001 0 50ZM 20 29.5714C 20 27.6135 21.6128 26 23.5714 26C 25.53 26 27.1429 27.6135 27.1429 29.5714C 27.1429 29.786 27.1149 29.9952 27.0778 30.1992L 27.2405 29.8225L 31.6118 31.7198L 30.6631 33.9009L 26.2965 32.0128L 26.45 31.6594C 25.7975 32.5526 24.7508 33.1428 23.5714 33.1428C 21.6128 33.1428 20 31.5295 20 29.5714ZM 24.7619 29.5714C 24.7619 28.8998 24.2427 28.381 23.5714 28.381C 22.9001 28.381 22.381 28.8998 22.381 29.5714C 22.381 30.2433 22.9001 30.762 23.5714 30.762C 24.2427 30.762 24.7619 30.2433 24.7619 29.5714ZM 41.4286 38.8209C 41.4286 33.7062 45.7277 29.5714 50.9524 29.5714C 56.177 29.5714 60.4762 33.7062 60.4762 38.8209C 60.4762 40.3048 59.8602 41.8003 59.0346 43.3456C 58.209 44.8906 57.1368 46.4652 56.0724 47.8889C 55.969 48.0273 55.8798 48.1344 55.7894 48.2428C 55.7153 48.3318 55.6403 48.4218 55.5562 48.5306C 56.331 48.9576 56.9805 49.4899 57.4349 50.149C 57.9399 50.8812 58.1724 51.8002 58.0487 52.6927L 58.1511 52.4276L 60.8901 53.4553L 61.3876 53.6414L 61.5829 54.1296L 62.2619 55.827L 60.0483 56.7152L 59.5648 55.4968L 57.3093 54.6552L 57.5511 54.0134C 56.4087 55.973 53.8533 56.922 51.0779 56.9524C 48.0955 56.9858 45.3051 55.9733 44.1909 53.7576C 43.6337 52.6499 43.7363 51.3322 44.3583 50.3257C 44.8143 49.5876 45.4987 48.9867 46.3439 48.5214C 46.2599 48.4125 46.1848 48.3232 46.1104 48.2346C 46.0215 48.1289 45.9336 48.0243 45.8324 47.8889C 44.768 46.4652 43.6957 44.8906 42.8702 43.3456C 42.0446 41.8003 41.4286 40.3048 41.4286 38.8209ZM 58.0952 38.8209C 58.0952 35.0367 54.9324 31.9524 50.9524 31.9524C 46.9723 31.9524 43.8095 35.0365 43.8095 38.8209C 43.8095 39.5619 44.2352 40.8409 44.9721 42.2202C 45.709 43.5994 46.7201 45.0983 47.739 46.4613C 49.1802 48.3893 50.1318 49.4313 50.7547 50.1133C 50.8246 50.1899 50.8905 50.2621 50.9524 50.3303C 51.0145 50.2617 51.0806 50.1893 51.1509 50.1124C 51.7742 49.4298 52.7256 48.3878 54.1657 46.4613C 55.1847 45.0983 56.1957 43.5994 56.9327 42.2202C 57.6696 40.8409 58.0952 39.5619 58.0952 38.8209ZM 31.7699 35.0867L 33.7556 33.7706L 36.397 37.7327L 34.4113 39.0487L 31.7699 35.0867ZM 47.381 38.5139C 47.381 36.5558 48.9938 34.9425 50.9524 34.9425C 52.911 34.9425 54.5238 36.5558 54.5238 38.5139C 54.5238 40.472 52.911 42.0853 50.9524 42.0853C 48.9938 42.0853 47.381 40.472 47.381 38.5139ZM 52.1429 38.5139C 52.1429 37.842 51.6237 37.3235 50.9524 37.3235C 50.2811 37.3235 49.7619 37.842 49.7619 38.5139C 49.7619 39.1858 50.2811 39.7045 50.9524 39.7045C 51.6237 39.7045 52.1429 39.1858 52.1429 38.5139ZM 35.7319 41.0298L 37.713 39.7091L 40.359 43.6711L 38.3734 44.9918L 35.7319 41.0298ZM 39.694 46.9729L 41.675 45.6521L 42.2052 46.452L 45.0511 47.5123L 44.2141 49.7444L 41.0101 48.5447L 40.652 48.4098L 40.438 48.0889L 39.694 46.9729ZM 50.0781 52.9996C 50.0781 52.9996 49.097 51.8857 47.8925 50.442C 47.1412 50.7863 46.6121 51.2061 46.3858 51.572C 46.1278 51.9896 46.1029 52.2644 46.316 52.6881C 46.7422 53.5354 48.7012 54.5974 51.05 54.5714C 53.3989 54.5452 55.2621 53.4423 55.6213 52.6183C 55.8009 52.2065 55.7668 51.929 55.4725 51.5022C 55.2311 51.1523 54.7006 50.7728 54.003 50.4513C 52.8011 51.8898 51.822 52.9996 51.822 52.9996C 51.7106 53.1194 51.5756 53.215 51.4256 53.2803C 51.2756 53.3456 51.1137 53.3793 50.9501 53.3793C 50.7864 53.3793 50.6246 53.3456 50.4745 53.2803C 50.3245 53.215 50.1896 53.1194 50.0781 52.9996ZM 60.9366 58.9194L 63.1454 58.0405L 64.9126 62.4584L 62.7037 63.3466L 60.9366 58.9194ZM 63.5872 65.5508L 65.7961 64.6719L 66.1542 65.5693L 68.7351 66.6436L 67.819 68.8385L 64.7777 67.5736L 64.3173 67.3831L 64.136 66.918L 63.5872 65.5508ZM 72.8367 68.3456C 73.446 67.2399 74.6114 66.4762 75.9524 66.4762C 77.911 66.4762 79.5238 68.0895 79.5238 70.0476C 79.5238 72.0055 77.911 73.619 75.9524 73.619C 74.2402 73.619 72.792 72.3868 72.4554 70.7684L 70.0186 69.7546L 70.9347 67.5551L 72.8367 68.3456ZM 77.1429 70.0476C 77.1429 69.3757 76.6237 68.8572 75.9524 68.8572C 75.2811 68.8572 74.7619 69.3757 74.7619 70.0476C 74.7619 70.7192 75.2811 71.238 75.9524 71.238C 76.6237 71.238 77.1429 70.7192 77.1429 70.0476Z"/>
</svg>
