<svg width="100" height="100" viewBox="0 0 100 100" version="1.1" xmlns="http://www.w3.org/2000/svg" xmlns:xlink="http://www.w3.org/1999/xlink">
<path id="noGps" fill-rule="evenodd" d="M 100 50C 100 77.6154 77.6154 100 50 100C 22.3846 100 0 77.6154 0 50C 0 22.3846 22.3846 0 50 0C 77.6154 0 100 22.3846 100 50ZM 55 48.5L 64 35.5L 62.3517 32.6978L 20.0846 52.7192L 41.8423 58.1577L 47.2808 79.9116L 62.1611 48.5L 55 48.5ZM 63.1822 24.1272L 58.2062 24.1272L 65.8518 35.2753L 57.8004 47L 62.6697 47L 68.1797 38.4147L 73.8605 47L 78.7725 47L 70.7211 35.2753L 78.4308 24.234L 73.7537 24.1272L 68.4359 32.1786L 63.1822 24.1272Z"/>
</svg>
