<svg width="50" height="50" viewBox="0 0 100 100" version="1.1" xmlns="http://www.w3.org/2000/svg" xmlns:xlink="http://www.w3.org/1999/xlink">
<path id="pause" fill-rule="evenodd" d="M 0 50C 0 22.3858 22.3797 0 50 0C 77.6142 0 100 22.3797 100 50C 100 77.6142 77.6203 100 50 100C 22.3858 100 0 77.6203 0 50ZM 35 31.9973C 35 30.8942 35.9002 30 36.992 30L 44.008 30C 45.1081 30 46 30.8915 46 31.9973L 46 68.0027C 46 69.1058 45.0998 70 44.008 70L 36.992 70C 35.8919 70 35 69.1085 35 68.0027L 35 31.9973ZM 54 31.9973C 54 30.8942 54.9002 30 55.992 30L 63.008 30C 64.1081 30 65 30.8915 65 31.9973L 65 68.0027C 65 69.1058 64.0998 70 63.008 70L 55.992 70C 54.8919 70 54 69.1085 54 68.0027L 54 31.9973Z"/>
</svg>
