<svg width="50" height="50" viewBox="0 0 100 100" version="1.1" xmlns="http://www.w3.org/2000/svg" xmlns:xlink="http://www.w3.org/1999/xlink">
<path id="record" fill-rule="evenodd" d="M 50 0C 22.3797 0 0 22.3858 0 50C 0 77.6203 22.3858 100 50 100C 77.6203 100 100 77.6142 100 50C 100 22.3797 77.6142 0 50 0ZM 63.7393 69.3677L 89.5623 52.4504C 91.6273 51.0976 91.6274 48.904 89.5623 47.5511L 63.7393 30.6339C 61.6743 29.281 60 30.1648 60 32.6081L 60 47.5511L 60 67.3934C 60 69.8291 61.6741 70.7206 63.7393 69.3677ZM 33 70C 44.0457 70 53 61.0457 53 50C 53 38.9543 44.0457 30 33 30C 21.9543 30 13 38.9543 13 50C 13 61.0457 21.9543 70 33 70Z"/>
</svg>
