<svg width="200" height="200" viewBox="0 0 100 100" version="1.1" xmlns="http://www.w3.org/2000/svg" xmlns:xlink="http://www.w3.org/1999/xlink">
<path id="satellite" fill-rule="evenodd" d="M 50 3.88098C 75.485 3.88098 96.119 24.515 96.119 50C 96.119 75.4847 75.4849 96.119 50 96.119C 24.5151 96.119 3.88098 75.4847 3.88098 50C 3.88098 24.515 24.515 3.88098 50 3.88098ZM 0 50C 0 22.3997 22.3998 0 50 0C 77.6002 0 100 22.3997 100 50C 100 77.6001 77.6002 100 50 100C 22.3998 100 0 77.6001 0 50ZM 44.5465 63.75C 46.5521 61.7397 46.5521 58.4125 44.5465 56.4022C 42.5408 54.3228 39.2211 54.3228 37.1462 56.4716C 36.7313 56.8875 36.1088 56.8875 35.6938 56.4716C 35.4864 56.2637 35.4172 55.9863 35.4172 55.7091C 35.4172 55.4318 35.4864 55.1545 35.6938 54.9465C 38.2528 52.3125 42.3333 52.1045 45.1689 54.2534L 47.5895 51.8273L 44.9614 49.1932L 50.1485 43.9943L 48.7653 42.6079L 47.0363 44.3409C 46.2064 45.1727 45.0306 45.658 43.8549 45.658C 42.6791 45.658 41.5034 45.1727 40.6735 44.3409L 38.8753 42.5386L 34.6564 38.3102L 30.5068 34.0818L 25.5272 29.0909L 36.593 18L 51.8084 33.25C 53.5374 34.9829 53.5374 37.8943 51.8084 39.6273L 50.2869 41.1522L 51.67 42.5386L 56.373 37.825C 57.2029 36.9932 58.3095 36.5079 59.5544 36.5079C 60.7993 36.5079 61.9059 36.9932 62.7358 37.825L 63.0816 38.1716C 63.9116 39.0034 64.3957 40.1125 64.3957 41.3602C 64.3957 42.6079 63.9116 43.717 63.0816 44.5488L 58.3095 49.2625L 59.5544 50.5103L 61.076 48.9852C 62.805 47.2523 65.7098 47.2523 67.4388 48.9852L 83 64.5125L 71.9343 75.6034L 62.5975 66.2455L 58.3787 62.0171L 56.4422 60.0762C 55.6122 59.2443 55.1281 58.0659 55.1281 56.8875C 55.1281 55.7091 55.6122 54.5306 56.4422 53.6989L 58.1712 51.9659L 56.9263 50.7181L 51.7393 55.917L 49.1111 53.283L 46.6905 55.7091C 48.8345 58.5511 48.5578 62.6409 45.9988 65.2057C 45.5839 65.6216 44.9614 65.6216 44.5465 65.2057C 44.1315 64.7898 44.1315 64.1659 44.5465 63.75ZM 59.4161 53.5602L 57.8254 55.1545C 56.9263 56.0557 56.9263 57.65 57.8254 58.6205L 59.0012 59.7988L 62.3209 56.4716L 59.4161 53.5602ZM 68.0612 59.175L 71.381 55.8478L 68.6145 53.075L 65.2948 56.4022L 68.0612 59.175ZM 72.28 63.4034L 75.5998 60.0762L 72.8333 57.3035L 69.5136 60.6307L 72.28 63.4034ZM 67.9921 62.1556L 64.6724 65.4829L 67.4388 68.2557L 70.7585 64.9285L 67.9921 62.1556ZM 63.22 63.958L 66.5397 60.6307L 63.7733 57.8579L 60.4535 61.1852L 63.22 63.958ZM 72.2109 66.384L 68.8912 69.7114L 71.7959 72.6227L 75.1157 69.2954L 72.2109 66.384ZM 73.6633 64.8591L 76.5681 67.7705L 79.8878 64.4432L 76.983 61.5319L 73.6633 64.8591ZM 65.9864 50.4409C 65.5023 50.025 64.8798 49.7477 64.2574 49.7477C 63.6349 49.7477 63.0125 49.9557 62.5283 50.4409L 60.9376 52.0353L 63.8424 54.9465L 67.1621 51.6193L 65.9864 50.4409ZM 48.6962 39.7659L 50.2869 38.1716C 51.1859 37.2705 51.1859 35.6068 50.2869 34.775L 49.1803 33.6659L 45.9297 36.9932L 48.6962 39.7659ZM 40.1893 34.2205L 36.8696 37.5477L 39.636 40.3204L 42.9558 36.9932L 40.1893 34.2205ZM 35.9705 29.9921L 32.6508 33.3193L 35.4172 36.092L 38.7369 32.7648L 35.9705 29.9921ZM 40.1893 31.2397L 43.5091 27.9125L 40.7426 25.1398L 37.4229 28.467L 40.1893 31.2397ZM 44.9614 29.4375L 41.6417 32.7648L 44.4081 35.5375L 47.7279 32.2102L 44.9614 29.4375ZM 35.9705 27.0114L 39.2902 23.6841L 36.5238 20.9114L 33.2041 24.2386L 35.9705 27.0114ZM 34.449 28.5364L 31.6826 25.7637L 28.3628 29.0909L 31.1293 31.8636L 34.449 28.5364ZM 42.1259 42.8853C 42.61 43.3011 43.2324 43.5784 43.8549 43.5784C 44.4773 43.5784 45.0998 43.3705 45.5839 42.8159L 47.1746 41.2216L 44.4081 38.4489L 41.0884 41.7761L 42.1259 42.8853ZM 57.8254 39.2806L 52.3617 44.7568L 47.8662 49.1932L 51.67 53.0057L 56.0964 48.5693L 61.5601 43.0931C 62.0442 42.6079 62.2517 41.9841 62.2517 41.3602C 62.2517 40.7363 62.0442 40.1125 61.5601 39.6273L 61.2143 39.2806C 60.3152 38.3102 58.7936 38.3102 57.8254 39.2806ZM 40.466 67.2159C 36.7313 67.2159 33.7574 64.1659 33.7574 60.4921C 33.7574 59.9375 34.2415 59.4523 34.7948 59.4523C 35.3481 59.4523 35.8322 59.9375 35.8322 60.4921C 35.8322 63.0568 37.907 65.1364 40.466 65.1364C 41.0193 65.1364 41.5034 65.6216 41.5034 66.1761C 41.5034 66.7307 41.0193 67.2159 40.466 67.2159ZM 27.9479 60.4921C 27.9479 67.4238 33.5499 73.0386 40.466 73.0386C 41.0193 73.0386 41.5034 72.5533 41.5034 71.9989C 41.5034 71.4443 41.0193 70.8898 40.466 70.8898C 34.7256 70.8898 30.0227 66.1761 30.0227 60.4227C 30.0227 59.8682 29.5386 59.3829 28.9853 59.3829C 28.432 59.3829 27.9479 59.9375 27.9479 60.4921ZM 40.466 76.9204C 41.0193 76.9204 41.5034 77.4056 41.5034 77.9602C 41.5034 78.5148 41.0193 79 40.466 79C 30.2993 79 22 70.6818 22 60.4921C 22 59.9375 22.4841 59.4523 23.0374 59.4523C 23.5907 59.4523 24.0748 59.9375 24.0748 60.4921C 24.0748 69.5728 31.4059 76.9204 40.466 76.9204ZM 38.8398 62.0338C 39.8391 63.0354 41.4594 63.0354 42.4587 62.0338C 43.458 61.0322 43.458 59.4083 42.4587 58.4067C 41.4594 57.4052 39.8391 57.4052 38.8398 58.4067C 37.8405 59.4083 37.8405 61.0322 38.8398 62.0338Z"/>
</svg>
