<svg width="200" height="200" viewBox="0 0 100 100" version="1.1" xmlns="http://www.w3.org/2000/svg" xmlns:xlink="http://www.w3.org/1999/xlink">
<path id="success" fill-rule="evenodd" d="M 50 3.88098C 75.485 3.88098 96.119 24.515 96.119 50C 96.119 75.4847 75.485 96.119 50 96.119C 24.515 96.119 3.88095 75.4847 3.88095 50C 3.88095 24.515 24.515 3.88098 50 3.88098ZM 0 50C 0 22.3997 22.3998 0 50 0C 77.6002 0 100 22.3997 100 50C 100 77.6001 77.6002 100 50 100C 22.3998 100 0 77.6001 0 50ZM 46.0348 65.4274L 76.5141 27.6208L 81.8513 31.8617L 49.3132 72.158C 48.7314 72.9172 47.9375 73.3634 47.0993 73.4744C 46.261 73.5852 45.3785 73.3608 44.6192 72.7789L 19.3729 53.4315L 23.446 48.1166L 46.0348 65.4274Z"/>
</svg>
