<svg width="200" height="200" viewBox="0 0 100 100" version="1.1" xmlns="http://www.w3.org/2000/svg" xmlns:xlink="http://www.w3.org/1999/xlink">
<path id="sync" fill-rule="evenodd" d="M 50 3.88098C 75.485 3.88098 96.119 24.515 96.119 50C 96.119 75.4847 75.4849 96.119 50 96.119C 24.5151 96.119 3.88098 75.4847 3.88098 50C 3.88098 24.515 24.5151 3.88098 50 3.88098ZM 0 50C 0 22.3997 22.3998 0 50 0C 77.6002 0 100 22.3997 100 50C 100 77.6001 77.6002 100 50 100C 22.3998 100 0 77.6001 0 50ZM 58.2498 24.5L 49.7498 16L 49.7498 20.25C 33.3477 20.25 20 33.5977 20 49.9999C 20 57.9606 23.1042 65.4392 28.7488 71.0668L 34.7416 65.0481C 30.7242 61.0314 28.4999 55.6853 28.4999 49.9999C 28.4999 38.2794 38.0294 28.7499 49.7498 28.7499L 49.7498 32.9999L 58.2498 24.5ZM 70.7512 28.9321L 64.7584 34.9508C 68.7758 38.9675 71 44.3136 71 49.9991C 71 61.7195 61.4706 71.249 49.7501 71.249L 49.7501 66.999L 41.2502 75.499L 49.7501 83.9989L 49.7501 79.7489C 66.1523 79.7489 79.5 66.4012 79.5 49.9991C 79.5 42.0383 76.3958 34.5598 70.7512 28.9321Z"/>
</svg>
