<svg width="100" height="100" viewBox="0 0 100 100" version="1.1" xmlns="http://www.w3.org/2000/svg" xmlns:xlink="http://www.w3.org/1999/xlink">
<path id="trace" fill-rule="evenodd" d="M 50 3.88098C 75.485 3.88098 96.119 24.515 96.119 50C 96.119 75.4847 75.4849 96.119 50 96.119C 24.5151 96.119 3.88098 75.4847 3.88098 50C 3.88098 24.515 24.515 3.88098 50 3.88098ZM 0 50C 0 22.3997 22.3998 0 50 0C 77.6002 0 100 22.3997 100 50C 100 77.6001 77.6002 100 50 100C 22.3998 100 0 77.6001 0 50ZM 66.6666 28.297C 66.6666 23.1824 70.9658 19.0522 76.1905 19.0522C 81.4152 19.0522 85.7143 23.1824 85.7143 28.297C 85.7143 29.7809 85.0983 31.2814 84.2727 32.8264C 83.4471 34.3717 82.3795 35.9413 81.3151 37.3651C 79.1863 40.2128 77.0601 42.4851 77.0601 42.4851C 76.9487 42.6041 76.814 42.6991 76.6644 42.7639C 76.5148 42.8289 76.3535 42.8623 76.1905 42.8623C 76.0274 42.8623 75.8661 42.8289 75.7165 42.7639C 75.5669 42.6991 75.4323 42.6041 75.3209 42.4851C 75.3209 42.4851 73.1993 40.2128 71.0705 37.3651C 70.0061 35.9413 68.9338 34.3717 68.1083 32.8264C 67.2827 31.2814 66.6666 29.7809 66.6666 28.297ZM 83.3333 28.297C 83.3333 24.5129 80.1705 21.4332 76.1905 21.4332C 72.2104 21.4332 69.0476 24.5129 69.0476 28.297C 69.0476 29.0381 69.4733 30.3264 70.2102 31.7057C 70.9471 33.0848 71.9582 34.5791 72.9771 35.9421C 74.4175 37.869 75.3688 38.9108 75.9916 39.5929C 76.0621 39.67 76.1282 39.7426 76.1905 39.8112L 76.3742 39.6093C 76.9955 38.928 77.9466 37.8851 79.3992 35.9421C 80.4181 34.5791 81.4385 33.0848 82.1754 31.7057C 82.9123 30.3264 83.3333 29.0381 83.3333 28.297ZM 72.619 27.9948C 72.619 26.0366 74.2319 24.4233 76.1905 24.4233C 78.1491 24.4233 79.7619 26.0366 79.7619 27.9948C 79.7619 29.9529 78.1491 31.5662 76.1905 31.5662C 74.2319 31.5662 72.619 29.9529 72.619 27.9948ZM 77.3809 27.9948C 77.3809 27.3229 76.8618 26.8043 76.1905 26.8043C 75.5192 26.8043 75 27.3229 75 27.9948C 75 28.6666 75.5192 29.1853 76.1905 29.1853C 76.8618 29.1853 77.3809 28.6666 77.3809 27.9948ZM 69.2894 44.2568L 73.3677 41.8062L 74.5954 43.8477L 70.5125 46.2983L 69.2894 44.2568ZM 51.4276 54.4875C 51.4276 49.3729 55.7268 45.2427 60.9514 45.2427C 66.1761 45.2427 70.4752 49.3729 70.4752 54.4875C 70.4752 55.9714 69.8593 57.4717 69.0337 59.0168C 68.335 60.3245 67.4528 61.6328 66.5551 62.8719C 68.1426 63.8368 69.2848 65.2544 69.2848 67.02C 69.2848 68.7593 68.1525 70.2131 66.6295 71.1542C 65.1064 72.0955 63.1228 72.6237 60.9514 72.6237C 58.7801 72.6237 56.8011 72.0955 55.2781 71.1542C 53.7551 70.2131 52.6181 68.7593 52.6181 67.02C 52.6181 65.2548 53.7652 63.8406 55.3525 62.8767C 54.4534 61.6357 53.5688 60.3262 52.8692 59.0168C 52.0436 57.4717 51.4276 55.9714 51.4276 54.4875ZM 68.0943 54.4875C 68.0943 50.7031 64.9315 47.6237 60.9514 47.6237C 56.9714 47.6237 53.8086 50.7031 53.8086 54.4875C 53.8086 55.2284 54.2343 56.5171 54.9712 57.8962C 55.7081 59.2755 56.7192 60.7698 57.7381 62.1326C 59.1791 64.0604 60.1302 65.1021 60.7526 65.7836C 60.823 65.8606 60.8892 65.9331 60.9514 66.0017C 61.0135 65.9332 61.0795 65.861 61.1497 65.7842C 61.772 65.1027 62.7233 64.061 64.1648 62.1326C 65.1837 60.7698 66.1948 59.2755 66.9317 57.8962C 67.6686 56.5171 68.0943 55.2284 68.0943 54.4875ZM 57.38 54.1853C 57.38 52.2272 58.9929 50.6138 60.9514 50.6138C 62.91 50.6138 64.5229 52.2272 64.5229 54.1853C 64.5229 56.1434 62.91 57.7567 60.9514 57.7567C 58.9929 57.7567 57.38 56.1434 57.38 54.1853ZM 62.1419 54.1853C 62.1419 53.5134 61.6227 52.9948 60.9514 52.9948C 60.2802 52.9948 59.761 53.5134 59.761 54.1853C 59.761 54.8572 60.2802 55.3757 60.9514 55.3757C 61.6227 55.3757 62.1419 54.8572 62.1419 54.1853ZM 23.8095 59.5284L 23.8095 59.5238C 29.0342 59.5238 33.3333 63.6586 33.3333 68.7732C 33.3333 70.2571 32.7173 71.7527 31.8917 73.298C 31.0662 74.843 29.9939 76.4175 28.9295 77.8413C 28.3735 78.585 27.8857 79.1696 27.3938 79.7592C 27.28 79.8955 27.166 80.0322 27.0508 80.1711L 27.6135 82.1382L 24.6465 82.9891C 24.5334 83.1011 24.399 83.1892 24.2513 83.2483C 24.1036 83.3074 23.9454 83.3362 23.7864 83.3331C 23.6273 83.3301 23.4704 83.2953 23.325 83.2306C 23.1796 83.1659 23.0487 83.0728 22.9399 82.9567C 22.9399 82.9567 20.8137 80.6936 18.6849 77.8459C 17.6205 76.4221 16.5529 74.8477 15.7273 73.3026C 14.9017 71.7573 14.2857 70.2617 14.2857 68.7778C 14.2857 63.6632 18.5848 59.5284 23.8095 59.5284ZM 30.9524 68.7778C 30.9524 64.9938 27.7896 61.9094 23.8095 61.9094C 19.8294 61.9094 16.6667 64.9938 16.6667 68.7778C 16.6667 69.5189 17.0876 70.7981 17.8246 72.1772C 18.5615 73.5564 19.5819 75.0555 20.6008 76.4183C 22.0427 78.3469 22.9906 79.3853 23.6127 80.0667C 23.6823 80.1428 23.7478 80.2146 23.8095 80.2827C 23.8755 80.21 23.9459 80.1329 24.0209 80.0508C 24.6445 79.3687 25.5927 78.3315 27.0229 76.4183C 28.0418 75.0555 29.0529 73.5564 29.7898 72.1772C 30.5267 70.7981 30.9524 69.5189 30.9524 68.7778ZM 66.9038 67.02C 66.9038 66.2692 66.2811 65.4285 65.0856 64.7739C 63.3663 66.9414 61.821 68.6755 61.821 68.6755C 61.7097 68.7947 61.575 68.8895 61.4254 68.9545C 61.2758 69.0193 61.1145 69.0527 60.9514 69.0527C 60.7884 69.0527 60.6271 69.0193 60.4775 68.9545C 60.3279 68.8895 60.1932 68.7947 60.0818 68.6755C 60.0818 68.6755 58.5355 66.9446 56.8173 64.7786C 55.623 65.433 54.9991 66.2697 54.9991 67.02C 54.9991 67.7189 55.4668 68.4702 56.529 69.1267C 57.5912 69.783 59.1779 70.2427 60.9514 70.2427C 62.725 70.2427 64.3163 69.783 65.3785 69.1267C 66.4407 68.4702 66.9038 67.7189 66.9038 67.02ZM 20.2381 68.4709C 20.2381 66.5128 21.8509 64.8995 23.8095 64.8995C 25.7681 64.8995 27.3809 66.5128 27.3809 68.4709C 27.3809 70.4291 25.7681 72.0424 23.8095 72.0424C 21.8509 72.0424 20.2381 70.4291 20.2381 68.4709ZM 45.7635 66.6946L 50.5255 66.6713L 50.5348 69.0522L 45.7729 69.0754L 45.7635 66.6946ZM 25 68.4709C 25 67.7991 24.4808 67.2805 23.8095 67.2805C 23.1382 67.2805 22.619 67.7991 22.619 68.4709C 22.619 69.1428 23.1382 69.6614 23.8095 69.6614C 24.4808 69.6614 25 69.1428 25 68.4709ZM 39.8763 71.7587L 42.9362 68.1129L 44.7591 69.6382L 41.6992 73.2887L 39.8763 71.7587ZM 35.2864 77.2322L 38.3464 73.5863L 40.1693 75.1162L 37.114 78.7621L 35.2864 77.2322ZM 29.2457 79.1992L 33.8216 77.8832L 34.4819 80.1711L 29.9061 81.4872L 29.2457 79.1992Z"/>
</svg>
