<svg width="50" height="50" viewBox="0 0 100 100" version="1.1" xmlns="http://www.w3.org/2000/svg" xmlns:xlink="http://www.w3.org/1999/xlink">
<path id="upload" d="M 50 1.38778e-15C 36.7392 9.71445e-15 24.0215 5.26784 14.6447 14.6447C 5.26784 24.0215 1.35308e-14 36.7392 0 50C 1.70003e-14 63.2608 5.26784 75.9785 14.6447 85.3553C 24.0215 94.7322 36.7392 100 50 100C 63.2608 100 75.9785 94.7322 85.3553 85.3553C 94.7322 75.9785 100 63.2608 100 50C 100 36.7392 94.7322 24.0215 85.3553 14.6447C 75.9785 5.26784 63.2608 8.32667e-15 50 0L 50 1.38778e-15ZM 50 15.0295L 65.6536 32.6313L 55.5786 32.6313L 55.5786 60.1917L 44.4214 60.1917L 44.4214 32.6313L 34.3464 32.6313L 50 15.0295ZM 25.9766 68.75L 74.0234 68.75L 74.0234 79.2969L 25.9766 79.2969L 25.9766 68.75Z"/>
</svg>
